<?xml version="1.0" standalone="no"?>
<!DOCTYPE svg PUBLIC "-//W3C//DTD SVG 20010904//EN"
 "http://www.w3.org/TR/2001/REC-SVG-20010904/DTD/svg10.dtd">
<svg version="1.0" xmlns="http://www.w3.org/2000/svg"
 width="960.000000pt" height="960.000000pt" viewBox="0 0 960.000000 960.000000"
 preserveAspectRatio="xMidYMid meet">
<metadata>
Created by potrace 1.11, written by Peter Selinger 2001-2013
</metadata>
<g transform="translate(0.000000,960.000000) scale(0.100000,-0.100000)"
fill="#000000" stroke="none">
<path d="M0 9589 c0 -9 271 -10 1081 -5 l1082 8 -7 -214 c-3 -117 -11 -321
-16 -453 -6 -132 -17 -413 -26 -625 -8 -212 -17 -397 -20 -412 -8 -36 -18 -42
-89 -57 -33 -7 -80 -24 -105 -38 -42 -24 -180 -157 -180 -174 0 -4 -29 -46
-65 -94 -36 -47 -65 -92 -65 -99 0 -7 -11 -23 -25 -36 -14 -13 -25 -28 -25
-32 0 -5 -7 -16 -15 -24 -8 -8 -12 -21 -9 -28 3 -8 -2 -26 -12 -41 -18 -27
-24 -28 -81 -10 -27 9 -32 -15 -8 -35 25 -21 19 -50 -10 -50 -30 0 -31 -7 -8
-33 17 -18 17 -20 -6 -38 -34 -28 -21 -49 24 -42 35 6 85 -11 85 -29 0 -4 -14
-22 -30 -40 -34 -35 -36 -49 -15 -81 18 -28 10 -126 -12 -134 -14 -6 -87 40
-97 60 -3 7 -16 28 -28 48 -13 20 -38 63 -57 95 -19 33 -68 115 -109 184 -65
108 -192 347 -192 362 0 3 13 22 30 43 38 48 28 75 -29 75 -42 0 -86 28 -96
60 -4 11 -1 35 5 52 11 30 8 44 -33 148 -72 183 -112 290 -136 360 -13 36 -29
77 -37 92 -8 14 -14 35 -14 45 0 30 -21 43 -69 43 -70 0 -151 -30 -163 -60 -6
-14 -12 -20 -15 -12 -5 14 -73 17 -73 2 0 -5 -28 -25 -63 -44 -34 -19 -77 -46
-96 -60 -32 -24 -71 -72 -71 -88 0 -5 40 -52 88 -105 48 -54 110 -125 136
-158 146 -181 252 -295 274 -295 62 0 88 -60 57 -130 -9 -21 -14 -43 -11 -49
4 -6 31 -11 61 -11 34 0 59 -5 69 -15 51 -52 402 -619 425 -687 6 -19 12 -52
13 -74 1 -53 12 -70 53 -84 34 -11 35 -14 35 -59 0 -38 7 -57 31 -91 17 -24
38 -57 45 -74 8 -17 20 -39 26 -48 10 -14 8 -26 -10 -62 -13 -25 -22 -58 -20
-73 3 -24 -3 -31 -38 -48 -80 -39 -202 -166 -135 -140 71 28 303 65 403 65 48
0 99 6 114 12 20 9 28 10 31 1 5 -15 43 -4 43 13 0 16 33 18 60 4 10 -5 32
-11 50 -12 17 -1 34 -6 36 -10 3 -4 6 -36 8 -71 1 -48 8 -71 27 -98 13 -19 29
-43 35 -54 8 -15 26 -22 70 -27 32 -5 86 -21 119 -37 33 -16 89 -44 125 -61
99 -47 116 -58 134 -85 9 -13 32 -40 51 -59 82 -83 182 -277 219 -427 14 -57
31 -135 37 -172 10 -56 18 -72 41 -88 26 -19 34 -20 95 -10 36 6 70 8 74 5 4
-2 10 0 14 6 3 5 14 10 24 10 10 0 29 8 42 19 13 10 35 22 49 26 14 4 32 14
40 22 8 7 34 27 57 43 32 23 42 37 45 62 2 25 8 34 26 36 15 2 22 10 22 26 0
26 24 51 39 42 12 -8 43 -103 81 -249 24 -93 29 -130 24 -172 -5 -42 -3 -60
10 -81 10 -14 15 -28 12 -32 -12 -12 -451 9 -498 24 -14 4 -18 0 -18 -19 0
-25 1 -25 98 -26 128 -1 315 -10 375 -17 41 -5 48 -9 53 -32 13 -64 28 -108
43 -120 21 -17 104 -15 148 3 56 23 73 43 73 84 0 57 4 58 120 50 285 -21 910
-53 1015 -53 154 1 1112 49 1167 58 30 6 38 -7 38 -59 0 -39 17 -60 67 -80 37
-16 130 -20 149 -7 13 9 31 56 39 104 3 21 10 40 16 43 13 9 74 13 312 21
l207 7 0 25 c0 21 -3 23 -25 18 -66 -17 -479 -36 -492 -23 -3 4 2 18 12 33 13
20 15 38 10 82 -5 47 0 81 29 192 36 137 54 195 70 218 6 11 12 10 26 -3 10
-9 16 -23 13 -31 -3 -9 5 -18 25 -25 25 -9 30 -16 30 -41 -1 -31 18 -52 72
-80 14 -7 28 -18 33 -25 4 -6 21 -14 37 -18 17 -4 35 -15 40 -26 6 -11 21 -19
35 -19 13 0 27 -5 30 -11 4 -6 12 -8 19 -6 6 2 40 0 74 -4 90 -13 117 4 132
80 37 189 94 369 140 441 5 8 26 42 47 75 20 33 55 79 77 103 23 23 45 51 51
62 11 20 120 82 188 106 22 8 48 21 57 28 19 18 114 46 154 46 27 0 36 9 70
62 28 44 41 75 42 106 5 77 16 90 72 83 6 -1 12 4 12 11 0 8 13 13 35 14 19 0
33 -2 30 -4 -3 -3 1 -12 8 -20 10 -13 9 -15 -5 -9 -12 4 -18 2 -18 -8 0 -21
17 -19 52 6 22 16 32 19 41 10 6 -6 48 -11 101 -11 107 0 311 -33 418 -66 60
-18 -57 102 -136 141 -35 17 -41 25 -41 51 -1 17 -9 50 -19 72 -18 40 -18 41
5 89 12 26 38 70 57 97 27 39 33 56 29 81 -6 39 -2 45 44 67 35 16 36 18 43
86 6 59 15 84 58 158 92 161 240 397 317 507 76 108 76 108 116 107 64 -3 73
-1 79 16 3 9 -3 32 -15 51 -19 30 -20 38 -9 66 16 40 37 57 68 57 27 0 38 12
215 223 61 72 128 152 149 176 l38 44 0 113 0 112 -64 36 c-35 20 -66 40 -68
44 -5 15 -78 22 -79 9 0 -7 -4 -3 -9 8 -10 25 -98 55 -163 55 -49 0 -77 -18
-77 -51 0 -11 -4 -27 -9 -37 -5 -9 -30 -73 -55 -142 -25 -69 -73 -196 -106
-284 -45 -114 -59 -161 -51 -169 19 -19 12 -63 -14 -91 -18 -19 -34 -26 -62
-26 -21 0 -45 -5 -53 -10 -13 -8 -13 -13 2 -37 43 -69 43 -68 14 -135 -22 -50
-113 -215 -191 -347 -175 -294 -214 -347 -253 -339 -25 5 -37 103 -17 134 22
34 19 51 -15 81 -16 14 -30 32 -30 38 0 19 44 37 85 33 46 -4 55 12 24 41 -21
19 -21 22 -6 39 22 24 21 30 -5 34 -28 4 -34 30 -13 51 23 23 19 41 -7 32 -58
-18 -64 -17 -82 10 -10 15 -15 33 -12 40 2 7 -2 19 -10 25 -8 7 -14 18 -14 26
0 7 -9 19 -19 26 -11 8 -25 27 -33 43 -7 17 -15 32 -18 35 -3 3 -9 13 -15 22
-5 9 -49 68 -97 131 -119 156 -169 194 -284 217 -34 7 -66 15 -73 19 -15 10
-29 134 -36 331 -3 91 -10 289 -15 440 -5 151 -14 406 -20 565 -5 160 -12 310
-14 336 -3 25 -1 51 3 58 7 10 180 11 887 6 483 -3 923 -8 977 -10 78 -2 97 0
97 11 0 12 -713 14 -4800 14 -3602 0 -4800 -3 -4800 -11z m3008 -2733 c3 -12
-1 -17 -10 -14 -7 3 -15 13 -16 22 -3 12 1 17 10 14 7 -3 15 -13 16 -22z
m3802 4 c0 -11 -4 -20 -10 -20 -5 0 -10 9 -10 20 0 11 5 20 10 20 6 0 10 -9
10 -20z m-3965 -39 c-8 -47 20 -96 84 -151 42 -36 52 -64 26 -74 -8 -3 -15
-10 -15 -16 0 -15 27 -12 56 6 22 15 30 15 67 4 23 -7 74 -14 112 -14 39 -1
77 -6 86 -11 22 -14 49 -68 49 -100 0 -31 14 -59 50 -101 30 -35 42 -33 87 9
26 24 31 35 26 58 -3 16 0 42 7 58 11 29 68 87 76 79 2 -3 -10 -33 -26 -67
-17 -34 -28 -67 -24 -72 3 -5 24 9 47 31 38 37 43 39 55 23 19 -27 15 -44 -28
-94 -22 -26 -40 -55 -40 -64 0 -14 3 -14 28 2 15 10 30 22 34 27 20 29 120
-242 122 -331 0 -45 3 -52 23 -56 28 -5 81 20 86 41 3 10 5 5 6 -10 1 -26 4
-28 41 -28 36 0 40 -2 40 -25 0 -22 4 -25 40 -25 29 0 40 4 40 15 0 8 4 15 9
15 5 0 14 14 20 31 9 27 8 32 -9 36 -25 7 -26 23 -2 23 10 0 28 7 40 16 17 12
22 23 19 47 -2 18 -2 24 0 14 3 -14 11 -17 27 -13 13 3 26 2 30 -2 4 -4 18 -7
29 -7 20 0 23 -7 28 -60 6 -63 25 -115 43 -115 6 0 3 -5 -6 -11 -19 -10 -24
-44 -9 -53 4 -3 11 -32 13 -64 3 -32 15 -77 27 -101 24 -46 60 -68 74 -44 6 9
12 11 20 4 14 -11 16 -480 3 -518 -6 -19 -3 -25 20 -33 32 -13 58 3 46 29 -5
9 -5 95 0 191 8 176 11 242 23 555 9 219 11 234 18 242 4 3 8 -52 9 -123 1
-71 2 -178 3 -239 1 -60 5 -120 9 -132 12 -32 33 -28 41 7 7 33 19 39 29 14
11 -28 7 -44 -11 -44 -13 0 -14 -3 -6 -11 13 -13 28 -1 49 36 12 22 42 33 97
34 l37 1 0 50 0 50 39 0 c29 0 41 5 44 18 3 9 5 -4 4 -29 0 -25 3 -51 7 -57 4
-7 2 -12 -3 -12 -6 0 -11 -7 -11 -15 0 -8 6 -12 15 -9 20 8 29 -34 23 -110 -3
-33 -2 -72 1 -86 l7 -25 8 28 c4 16 9 57 11 91 2 34 9 75 15 91 6 16 7 31 3
32 -5 2 -7 21 -5 43 l4 40 80 0 c90 0 88 1 135 -82 23 -43 30 -48 61 -48 25 0
40 7 55 26 l20 26 21 -38 c27 -50 56 -57 56 -14 0 16 4 30 9 30 13 0 6 112 -8
138 -10 18 -9 34 4 79 9 31 15 79 14 107 -4 83 1 270 7 264 3 -4 5 -79 5 -169
0 -90 4 -168 8 -173 8 -10 17 -237 27 -660 2 -77 7 -143 13 -149 6 -6 16 -5
27 1 16 9 17 32 16 281 -1 154 2 271 7 271 5 0 18 -12 29 -27 l20 -28 17 43
c10 23 23 42 30 42 15 0 35 80 35 138 0 20 4 52 9 70 6 20 6 32 0 32 -5 0 -3
13 6 30 22 42 20 117 -2 123 -11 3 -7 5 10 6 20 1 30 8 37 26 11 28 25 32 34
9 3 -8 10 -12 16 -9 5 3 10 1 10 -5 0 -13 58 -64 74 -66 6 0 17 -2 24 -2 6 -1
12 -7 12 -13 0 -6 -9 -9 -20 -6 -34 9 -25 -34 14 -65 39 -31 67 -35 86 -13 7
8 19 15 26 15 8 0 14 10 14 25 0 16 6 25 15 25 8 0 15 -7 15 -15 0 -8 11 -17
25 -21 14 -3 25 -12 25 -20 0 -8 6 -14 14 -14 22 0 39 28 34 55 -3 14 -1 25 3
25 5 0 9 11 9 23 0 13 3 27 7 31 4 3 8 12 10 19 9 37 65 196 83 233 l22 43 29
-21 c23 -18 32 -19 42 -9 10 10 6 17 -18 37 -16 13 -29 28 -28 33 1 5 -4 15
-12 21 -20 17 -19 59 2 67 11 4 27 -5 50 -30 29 -33 53 -47 53 -32 0 3 -13 34
-30 68 -36 77 -37 82 -5 61 41 -27 68 -80 61 -119 -6 -31 -3 -39 29 -72 32
-33 37 -35 58 -24 29 16 67 76 67 106 0 34 35 108 57 121 13 8 34 9 61 4 24
-4 44 -4 47 0 2 3 36 13 74 20 64 12 73 12 89 -3 20 -18 52 -23 52 -8 0 5 -10
16 -22 25 l-23 16 51 47 c79 74 97 105 85 148 -5 21 -6 37 0 41 5 3 9 0 9 -6
0 -7 9 -23 20 -37 22 -28 28 -101 9 -120 -5 -5 -10 -29 -11 -51 0 -24 -6 -43
-13 -46 -8 -3 -15 -15 -17 -28 -2 -13 -10 -24 -18 -24 -46 -5 -58 -16 -65 -60
-7 -48 -14 -55 -65 -64 -21 -4 -34 -11 -32 -19 6 -26 -9 -48 -30 -47 -29 1
-52 -45 -49 -96 1 -32 -2 -39 -28 -53 -44 -22 -81 -20 -81 5 0 32 -26 34 -63
6 -38 -29 -67 -34 -67 -11 0 25 -24 95 -33 95 -4 0 -10 -7 -13 -15 -4 -8 -16
-15 -29 -15 -36 0 -51 -25 -31 -54 8 -14 25 -27 36 -31 13 -4 23 -18 27 -36 6
-33 9 -35 30 -14 12 12 18 13 29 4 8 -6 14 -17 14 -23 0 -19 -60 -76 -80 -76
-10 0 -26 -3 -36 -7 -16 -6 -16 -4 2 19 10 15 21 26 24 26 17 -1 19 4 10 22
-8 14 -21 20 -46 20 -29 0 -44 -9 -92 -58 -32 -32 -56 -64 -54 -70 2 -7 -2
-12 -8 -12 -7 0 -22 -8 -35 -19 l-24 -18 23 -21 c17 -14 27 -17 34 -10 6 6 22
11 36 11 15 0 29 4 32 8 13 21 22 -4 12 -34 -26 -83 -27 -110 -5 -149 12 -21
27 -38 34 -38 6 0 15 -10 18 -22 4 -13 13 -38 22 -56 16 -36 12 -83 -12 -137
-24 -55 -26 -74 -11 -107 40 -86 12 -229 -97 -496 -15 -35 -41 -77 -61 -96
-27 -25 -36 -41 -36 -67 0 -37 -36 -107 -60 -120 -8 -4 -130 -13 -270 -18
-140 -6 -345 -16 -455 -21 -405 -20 -545 -25 -545 -19 0 3 -84 9 -187 13 -104
3 -233 8 -288 11 -55 3 -206 10 -335 16 -129 6 -244 12 -255 14 -28 6 -65 74
-65 118 0 29 -8 44 -38 74 -29 28 -50 66 -80 143 -55 142 -85 230 -88 260 -1
14 -5 60 -10 102 -6 67 -5 78 10 84 22 9 21 61 -4 109 -24 46 -26 121 -5 149
8 11 15 28 15 38 0 10 7 21 15 24 38 15 71 123 46 149 -15 15 -25 85 -13 85 6
0 14 -5 18 -11 3 -6 15 -9 25 -6 11 3 23 -2 29 -11 5 -10 10 -12 10 -4 0 6 9
12 19 12 11 0 22 3 24 8 7 10 -28 52 -43 52 -6 0 -10 5 -8 12 2 6 -24 37 -59
70 -56 52 -66 58 -103 56 -46 -2 -51 -15 -15 -48 34 -31 31 -41 -7 -34 -65 12
-118 103 -57 96 19 -2 29 4 37 23 6 14 18 25 26 25 8 0 23 15 35 33 l20 32
-22 17 c-12 9 -25 14 -30 11 -4 -2 -15 1 -23 8 -19 15 -27 7 -39 -44 -13 -52
-42 -60 -80 -23 -14 14 -33 26 -42 26 -9 0 -13 -3 -10 -6 12 -13 -14 -44 -36
-44 -51 0 -85 28 -77 65 3 19 -23 95 -33 95 -16 0 -57 41 -57 57 0 7 -11 13
-26 13 -38 0 -64 18 -64 45 0 13 -5 27 -10 30 -8 5 -7 11 1 21 9 11 7 14 -10
14 -30 0 -61 18 -61 34 0 8 -7 19 -15 26 -8 7 -15 23 -15 37 0 13 -7 46 -16
74 -18 53 -15 77 16 127 26 42 33 41 25 -7z m215 -42 c0 -10 -4 -20 -9 -23
-10 -7 -21 17 -21 46 0 17 3 18 15 8 8 -7 15 -21 15 -31z m3704 26 c6 -18 -2
-45 -15 -45 -5 0 -9 14 -9 30 0 32 14 40 24 15z m-3457 -42 c11 -11 49 -35 84
-52 35 -18 69 -38 74 -44 6 -7 23 -18 38 -25 40 -17 53 -61 14 -46 -9 3 -19
14 -22 25 -4 10 -13 19 -21 19 -8 0 -44 18 -80 40 -36 22 -70 40 -75 40 -9 0
-21 8 -54 38 -7 6 -18 12 -23 12 -5 0 -17 9 -27 20 -18 20 -18 20 27 6 25 -7
54 -22 65 -33z m3243 7 c-33 -27 -64 -46 -188 -111 -29 -16 -61 -38 -72 -51
-10 -13 -21 -20 -25 -16 -12 12 3 38 29 48 13 5 27 13 30 19 4 5 44 30 91 56
47 25 85 49 85 54 0 8 47 28 70 30 8 0 -1 -13 -20 -29z m-3550 -85 c0 -5 -5
-3 -10 5 -5 8 -10 20 -10 25 0 6 5 3 10 -5 5 -8 10 -19 10 -25z m3814 20 c-4
-8 -8 -15 -10 -15 -2 0 -4 7 -4 15 0 8 4 15 10 15 5 0 7 -7 4 -15z m-4514 -94
c0 -3 -16 -11 -35 -17 -26 -8 -37 -8 -45 1 -15 18 6 31 45 27 19 -2 35 -7 35
-11z m5280 -6 c0 -16 -12 -18 -47 -9 -35 10 -27 24 12 24 24 0 35 -5 35 -15z
m-3113 -177 c-3 -7 -5 -2 -5 12 0 14 2 19 5 13 2 -7 2 -19 0 -25z m0 -245 c-3
-10 -5 -4 -5 12 0 17 2 24 5 18 2 -7 2 -21 0 -30z m-2497 -68 c0 -8 -4 -15
-10 -15 -5 0 -10 7 -10 15 0 8 5 15 10 15 6 0 10 -7 10 -15z m-387 -12 c-7 -2
-19 -2 -25 0 -7 3 -2 5 12 5 14 0 19 -2 13 -5z m2788 -381 c-6 -2 -11 -13 -11
-25 0 -15 -3 -18 -11 -10 -7 7 -5 22 6 50 9 22 15 44 14 49 -1 5 0 20 2 34 1
14 4 -2 6 -35 3 -36 0 -61 -6 -63z m1056 36 c-2 -18 -4 -6 -4 27 0 33 2 48 4
33 2 -15 2 -42 0 -60z m-207 -58 c0 -5 -4 -10 -10 -10 -5 0 -10 5 -10 10 0 6
5 10 10 10 6 0 10 -4 10 -10z m-610 -10 c0 -5 -7 -10 -16 -10 -8 0 -12 5 -9
10 3 6 10 10 16 10 5 0 9 -4 9 -10z m560 1 c0 -5 8 -12 18 -14 9 -3 -3 -5 -28
-5 -25 0 -37 2 -27 5 9 2 17 9 17 14 0 5 5 9 10 9 6 0 10 -4 10 -9z"/>
<path d="M3406 6321 c-4 -5 -2 -12 3 -15 5 -4 12 -2 15 3 4 5 2 12 -3 15 -5 4
-12 2 -15 -3z"/>
<path d="M6376 6303 c-6 -14 -5 -15 5 -6 7 7 10 15 7 18 -3 3 -9 -2 -12 -12z"/>
<path d="M5810 5898 l-25 -10 23 -11 c25 -11 35 -6 30 16 -2 11 -9 12 -28 5z"/>
<path d="M3608 5883 c-31 -8 -19 -23 17 -23 36 0 47 13 19 24 -9 3 -16 5 -17
5 -1 -1 -10 -3 -19 -6z"/>
<path d="M3938 5883 c12 -2 32 -2 45 0 12 2 2 4 -23 4 -25 0 -35 -2 -22 -4z"/>
<path d="M6128 5883 c-37 -6 -36 -23 2 -23 20 0 30 5 30 15 0 8 -1 14 -2 14
-2 -1 -15 -4 -30 -6z"/>
<path d="M6168 5833 c7 -3 16 -2 19 1 4 3 -2 6 -13 5 -11 0 -14 -3 -6 -6z"/>
<path d="M4960 5720 c0 -25 4 -31 18 -28 11 2 17 12 17 28 0 16 -6 26 -17 28
-14 3 -18 -3 -18 -28z"/>
<path d="M4988 5668 c9 -9 15 -9 24 0 9 9 7 12 -12 12 -19 0 -21 -3 -12 -12z"/>
<path d="M4842 5096 c-11 -25 -7 -36 15 -36 14 0 18 46 4 54 -4 3 -13 -5 -19
-18z"/>
<path d="M210 9535 c0 -8 7 -15 15 -15 8 0 15 7 15 15 0 8 -7 15 -15 15 -8 0
-15 -7 -15 -15z"/>
<path d="M9560 9535 c0 -8 7 -15 15 -15 8 0 15 7 15 15 0 8 -7 15 -15 15 -8 0
-15 -7 -15 -15z"/>
<path d="M140 9410 c0 -13 7 -20 20 -20 13 0 20 7 20 20 0 13 -7 20 -20 20
-13 0 -20 -7 -20 -20z"/>
<path d="M46 9361 c-11 -4 -22 -15 -25 -24 -3 -9 -3 -90 2 -179 4 -90 6 -174
4 -188 l-3 -25 -11 25 c-11 24 -12 23 -12 -16 -1 -44 21 -76 39 -58 6 6 11
100 12 212 1 155 4 205 15 213 10 9 17 8 28 -1 23 -19 19 -59 -7 -71 -22 -9
-21 -9 3 -4 15 3 31 -1 37 -8 6 -6 14 -61 20 -120 5 -63 14 -113 22 -120 30
-28 -12 319 -42 349 -18 17 -59 25 -82 15z"/>
<path d="M370 9220 c0 -11 7 -20 15 -20 8 0 15 9 15 20 0 11 -7 20 -15 20 -8
0 -15 -9 -15 -20z"/>
<path d="M9395 9230 c-8 -14 3 -30 21 -30 8 0 14 9 14 20 0 21 -24 28 -35 10z"/>
<path d="M242 9207 c-15 -18 -20 -50 -25 -157 -3 -56 -2 -83 3 -65 4 17 8 48
9 70 2 56 14 74 40 58 11 -7 22 -9 25 -4 3 5 -3 11 -14 14 -14 3 -20 14 -20
32 0 22 4 26 23 23 17 -2 23 -11 25 -35 2 -18 8 -33 13 -33 7 0 8 -38 4 -107
-12 -219 0 -613 17 -570 10 23 1 183 -14 264 -9 47 -9 75 0 115 6 29 14 121
18 203 6 144 6 151 -16 178 -23 29 -69 37 -88 14z"/>
<path d="M9476 9205 c-27 -20 -33 -90 -23 -245 11 -153 11 -239 2 -397 -4 -67
-4 -130 1 -140 19 -40 32 351 19 570 l-7 119 23 -3 c13 -2 30 0 37 5 23 14 33
-8 42 -95 5 -46 13 -95 19 -109 10 -21 10 -17 6 25 -4 28 -10 96 -13 151 -5
60 -13 108 -21 118 -17 20 -60 20 -85 1z m59 -55 c0 -18 -6 -26 -22 -28 -18
-3 -23 1 -23 21 0 28 9 39 30 35 9 -2 15 -14 15 -28z"/>
<path d="M170 8920 c0 -28 4 -40 14 -40 27 0 36 64 10 74 -24 9 -24 9 -24 -34z"/>
<path d="M3108 4555 c-10 -23 -15 -25 -57 -19 -35 4 -61 0 -111 -19 -72 -27
-79 -38 -59 -99 12 -37 13 -38 36 -23 12 9 23 13 23 10 0 -3 12 1 28 8 33 17
114 11 125 -9 11 -18 82 -64 100 -64 18 0 44 30 49 55 2 14 13 21 33 23 53 6
80 52 31 52 -13 0 -31 3 -40 6 -18 7 -22 39 -6 49 16 10 -1 35 -25 35 -13 0
-27 5 -30 10 -3 6 -24 10 -46 10 -32 0 -41 -4 -51 -25z m57 -65 c3 -5 -1 -10
-9 -10 -8 0 -18 5 -21 10 -3 6 1 10 9 10 8 0 18 -4 21 -10z"/>
<path d="M6573 4567 c-36 -12 -49 -33 -32 -53 17 -20 -6 -44 -42 -44 -22 0
-29 -5 -29 -19 0 -24 12 -32 50 -33 24 -1 30 -6 35 -29 12 -53 52 -59 113 -17
23 16 42 33 42 38 0 15 90 12 135 -5 22 -8 45 -14 50 -15 12 0 35 55 35 82 0
24 -105 63 -174 64 -51 1 -60 4 -67 22 -7 18 -16 22 -46 21 -21 -1 -52 -7 -70
-12z m87 -77 c0 -5 -7 -10 -15 -10 -8 0 -15 5 -15 10 0 6 7 10 15 10 8 0 15
-4 15 -10z"/>
<path d="M3760 4400 c0 -14 -83 -60 -108 -60 -12 0 -42 5 -67 12 -24 7 -48 9
-51 5 -4 -4 2 -42 15 -85 21 -72 21 -80 7 -107 -9 -17 -16 -35 -16 -42 0 -13
-89 -43 -129 -43 -14 0 -89 -11 -166 -25 l-140 -25 -22 26 c-13 14 -23 31 -23
38 0 14 -45 77 -84 116 -14 14 -39 50 -55 80 l-31 55 0 -47 c0 -26 9 -73 21
-103 13 -34 19 -69 16 -88 -4 -29 3 -77 34 -222 6 -27 15 -120 21 -205 5 -85
10 -168 11 -185 2 -16 6 -36 10 -43 5 -6 6 -42 2 -80 -7 -81 4 -133 30 -147
42 -22 73 -47 79 -63 4 -9 13 -28 21 -42 8 -14 18 -46 21 -73 5 -37 13 -52 36
-68 l30 -21 54 27 c43 22 63 26 95 22 48 -6 99 -49 99 -84 0 -31 -9 -29 -43 7
-33 34 -87 41 -125 14 -35 -24 -29 -63 18 -109 23 -22 68 -74 102 -115 33 -41
71 -81 84 -88 13 -7 24 -17 24 -23 0 -13 72 -79 87 -79 6 0 32 -16 57 -35 26
-19 47 -35 49 -35 1 0 11 16 21 35 11 19 30 42 42 50 28 18 30 39 9 88 -14 33
-13 35 4 30 11 -3 29 -16 42 -29 12 -13 30 -24 40 -24 37 0 128 -124 107 -145
-2 -3 -22 5 -44 15 -34 17 -46 18 -75 9 -56 -18 -79 -51 -79 -114 0 -30 8 -73
18 -97 11 -24 22 -60 26 -80 4 -21 11 -38 15 -38 5 0 14 -13 21 -30 18 -44 30
-37 30 20 0 28 3 50 8 50 4 0 18 -12 31 -26 13 -14 38 -32 55 -41 17 -8 39
-22 48 -30 21 -19 35 -11 53 35 26 60 60 97 124 131 47 24 69 31 91 26 16 -3
38 -1 50 5 11 6 45 12 76 14 37 2 58 8 67 19 10 14 18 15 47 7 46 -13 51 -17
79 -68 17 -33 22 -53 18 -79 -5 -31 -1 -42 28 -76 27 -31 35 -50 36 -81 1 -23
2 -45 4 -51 1 -5 3 -23 3 -38 1 -16 6 -26 12 -22 6 4 24 4 40 0 l30 -7 0 -78
c0 -72 -2 -79 -25 -94 -19 -12 -25 -25 -25 -51 0 -19 -3 -35 -8 -35 -8 0 -32
-71 -32 -96 0 -13 -3 -14 -14 -5 -10 8 -16 9 -21 1 -3 -6 -10 -8 -15 -5 -5 3
-12 1 -15 -5 -5 -8 -14 -6 -30 4 -27 18 -54 12 -56 -13 -1 -9 -3 -57 -4 -108
-2 -50 -6 -106 -10 -124 -6 -26 -5 -31 8 -26 9 3 21 -1 28 -9 9 -11 8 -18 -6
-34 -20 -22 -35 -18 -35 9 0 30 -24 71 -42 71 -11 0 -18 8 -18 20 0 13 -7 20
-20 20 -17 0 -20 7 -20 45 0 34 -5 48 -20 57 -11 7 -20 18 -20 25 0 21 -67 27
-113 9 -33 -12 -69 -15 -167 -12 -69 2 -133 7 -142 11 -11 5 -26 -2 -43 -19
-16 -16 -37 -26 -54 -26 -16 0 -34 -6 -40 -14 -7 -8 -38 -18 -69 -22 -31 -3
-61 -10 -67 -14 -18 -14 -136 -31 -167 -25 -16 4 -42 1 -59 -5 -23 -10 -32
-10 -44 0 -9 7 -46 14 -83 16 -238 12 -354 28 -408 56 -16 9 -40 21 -54 27
-14 6 -34 17 -44 23 -69 45 -112 68 -127 68 -10 0 -30 5 -46 12 -15 6 -31 11
-35 10 -5 -1 -8 2 -8 8 0 5 -8 10 -19 10 -10 0 -43 25 -74 55 -30 30 -60 55
-66 55 -6 0 -15 9 -21 19 -5 11 -31 36 -56 57 -35 29 -58 39 -103 45 -31 5
-69 15 -84 22 -25 13 -94 107 -110 150 -3 9 -19 22 -34 28 -15 6 -36 18 -47
27 -10 9 -21 16 -25 15 -12 -3 -96 40 -124 63 -16 13 -25 24 -21 24 4 0 0 8
-8 18 -25 28 -29 77 -12 157 13 62 13 88 4 148 -6 39 -15 76 -20 81 -6 6 -10
20 -10 32 0 25 -86 141 -112 149 -9 3 -26 20 -37 38 -12 18 -30 46 -41 62 -11
17 -23 46 -26 65 -4 19 -18 59 -31 88 -14 29 -27 65 -29 80 -23 174 -37 232
-55 232 -4 0 -7 23 -7 51 0 28 -5 56 -11 62 -6 6 -11 25 -11 42 0 38 -14 63
-25 45 -14 -23 -6 -164 10 -176 18 -14 19 -31 3 -37 -10 -3 -10 -8 2 -21 8
-10 13 -31 12 -47 -1 -15 2 -46 7 -69 5 -22 5 -42 1 -45 -13 -8 -100 67 -100
86 0 9 -7 24 -15 33 -8 8 -15 19 -15 24 0 13 -39 22 -46 11 -6 -10 73 -149 86
-149 8 0 45 -96 57 -150 3 -14 14 -36 23 -50 10 -14 32 -54 50 -90 18 -36 44
-78 57 -94 33 -40 66 -108 92 -191 12 -38 26 -85 32 -103 10 -32 16 -71 24
-167 3 -27 7 -68 10 -90 3 -22 7 -63 8 -92 2 -35 9 -59 22 -75 12 -13 36 -45
54 -73 19 -27 45 -60 58 -71 14 -12 28 -37 32 -55 6 -27 11 -33 28 -31 16 2
22 -3 25 -20 2 -13 15 -28 32 -37 16 -7 31 -22 33 -32 3 -11 9 -19 14 -19 17
0 74 -64 88 -96 11 -27 19 -33 56 -38 23 -4 51 -16 60 -26 10 -11 24 -20 31
-20 20 0 111 -50 145 -81 18 -16 40 -29 50 -29 10 0 24 -6 31 -13 12 -12 139
-35 240 -43 21 -2 53 -7 72 -12 18 -6 53 -8 77 -5 24 2 76 -3 114 -13 39 -9
89 -18 113 -19 23 -1 45 -5 48 -8 4 -3 -8 -31 -26 -61 -17 -31 -29 -60 -26
-65 3 -4 19 -14 35 -21 31 -12 61 -62 61 -101 0 -30 -91 -118 -130 -126 -17
-3 -33 -9 -35 -14 -9 -14 48 -59 112 -90 70 -33 98 -66 89 -104 -7 -28 -41
-63 -73 -76 -25 -9 -31 -29 -10 -29 6 0 23 -6 37 -13 24 -13 57 -24 183 -62
32 -9 62 -25 67 -35 17 -32 11 -60 -15 -72 -14 -6 -25 -19 -25 -30 0 -18 -8
-22 -46 -19 -13 1 -35 -14 -59 -41 -22 -24 -50 -50 -65 -59 -14 -9 -57 -47
-96 -85 -125 -121 -158 -149 -189 -161 -23 -9 430 -11 1975 -11 1555 0 1998 2
1972 11 -18 7 -45 24 -60 38 -15 15 -68 66 -119 115 -50 48 -102 93 -115 100
-13 7 -38 31 -57 54 -28 35 -38 41 -64 38 -27 -2 -33 1 -35 19 -2 15 -13 25
-28 29 -19 5 -24 13 -24 38 0 17 4 36 8 42 4 7 48 23 97 37 50 13 119 37 154
53 l63 28 -40 17 c-70 30 -94 96 -49 136 12 11 48 33 79 48 32 16 69 40 84 54
l27 25 -44 18 c-64 27 -129 94 -129 133 0 35 33 95 53 95 7 0 21 6 31 13 17
13 16 16 -14 65 -17 28 -29 56 -25 62 3 5 23 10 43 10 20 0 57 7 82 16 25 9
83 18 130 20 47 2 99 6 115 8 17 3 84 13 149 22 66 9 126 19 135 23 9 5 33 16
54 26 21 11 49 29 63 42 14 13 29 23 34 23 8 0 53 21 90 42 44 24 103 47 110
43 5 -3 17 9 26 27 26 51 65 98 80 98 8 0 20 12 26 26 8 17 18 24 30 21 13 -4
21 4 30 29 6 19 17 33 23 33 27 -3 34 4 37 38 2 28 9 41 26 48 12 5 25 18 28
27 3 10 10 18 15 18 5 0 9 5 9 10 0 11 30 57 61 95 10 12 19 48 23 90 3 39 9
84 11 100 3 17 7 53 10 80 8 88 13 124 23 157 54 177 83 246 124 294 12 13 42
62 66 107 24 45 47 86 53 91 5 6 9 18 9 28 0 32 36 109 107 226 24 39 43 76
43 82 0 7 6 10 14 7 15 -6 81 107 71 123 -3 6 -17 10 -29 10 -20 0 -26 -10
-43 -62 -14 -46 -25 -64 -39 -66 -20 -4 -64 -63 -64 -88 0 -8 -16 -24 -35 -35
-19 -12 -35 -25 -35 -30 0 -5 -4 -9 -9 -9 -11 0 -4 101 10 145 6 20 6 31 -1
33 -14 5 -12 23 4 36 9 7 16 42 19 99 5 77 4 87 -11 87 -13 0 -21 -18 -35 -73
-9 -39 -17 -83 -17 -97 -1 -14 -7 -36 -15 -50 -8 -14 -14 -37 -15 -51 0 -14
-3 -29 -6 -32 -4 -4 -8 -23 -9 -44 -3 -64 -23 -141 -50 -190 -14 -26 -25 -58
-25 -71 0 -36 -29 -81 -90 -142 -80 -80 -106 -117 -130 -190 -34 -101 -40
-164 -22 -246 8 -40 12 -86 8 -106 -7 -39 -69 -113 -103 -123 -13 -3 -23 -11
-23 -16 0 -5 -6 -9 -14 -9 -8 0 -40 -14 -71 -30 -41 -22 -64 -41 -78 -68 -57
-108 -65 -115 -166 -142 -83 -22 -98 -30 -141 -73 -26 -26 -52 -47 -58 -47 -6
0 -14 -9 -17 -21 -4 -11 -9 -18 -12 -16 -2 3 -24 -15 -48 -39 -24 -24 -53 -44
-64 -44 -11 0 -22 -4 -25 -9 -3 -5 -36 -18 -73 -30 -38 -11 -92 -36 -121 -56
-30 -19 -59 -35 -66 -35 -6 0 -27 -10 -46 -23 -43 -28 -136 -44 -333 -57 -87
-5 -155 -14 -163 -21 -11 -9 -21 -9 -40 0 -14 6 -42 8 -62 5 -21 -3 -65 1
-102 11 -36 9 -88 20 -116 25 -56 9 -94 25 -94 41 0 5 -11 7 -24 3 -17 -4 -31
1 -50 21 -23 23 -31 25 -63 18 -66 -14 -263 -8 -320 9 l-53 16 -34 -35 c-33
-35 -55 -101 -40 -125 5 -7 2 -8 -5 -3 -7 4 -22 -1 -34 -12 -35 -32 -44 -34
-61 -17 -13 12 -16 38 -16 118 0 115 -10 139 -49 114 -17 -10 -28 -10 -61 3
-38 13 -43 19 -65 84 -14 39 -25 78 -25 87 0 10 -10 20 -25 24 -29 7 -41 51
-31 119 7 43 8 44 52 51 43 6 44 7 44 43 1 68 17 122 45 152 23 23 29 38 29
81 2 67 35 121 85 137 29 8 38 7 53 -6 11 -10 40 -18 69 -20 27 -1 59 -8 70
-14 12 -6 35 -8 53 -5 66 12 174 -63 215 -148 11 -25 24 -47 29 -50 9 -5 100
51 139 87 26 23 34 13 30 -42 -3 -43 14 -49 32 -13 56 111 88 236 75 289 -17
68 -114 103 -164 58 -24 -21 -30 -19 -30 13 0 33 77 122 106 122 11 0 30 12
43 25 30 32 56 34 46 3 -19 -62 -18 -68 18 -107 19 -21 39 -46 44 -56 9 -15
15 -14 57 19 26 20 52 36 57 36 15 0 199 183 199 197 0 7 11 20 25 29 14 9 25
21 25 26 0 6 20 29 45 52 27 25 45 51 45 64 0 36 -35 62 -81 62 -33 0 -47 -6
-70 -32 -21 -22 -33 -28 -40 -21 -31 31 48 103 111 103 19 0 57 -11 83 -25 45
-24 49 -25 78 -10 33 18 32 15 48 100 6 33 17 65 23 70 7 6 18 19 24 30 6 11
26 28 44 37 18 9 37 23 41 30 5 7 9 51 9 98 0 47 7 130 15 185 8 55 15 141 15
190 1 50 5 110 10 135 25 113 31 151 39 241 5 53 14 106 21 118 14 27 23 111
11 111 -4 0 -13 -10 -18 -22 -6 -13 -36 -52 -67 -88 -31 -36 -67 -88 -81 -117
-14 -28 -28 -54 -33 -57 -7 -4 -253 32 -376 56 -56 11 -59 13 -77 55 -24 55
-23 63 1 142 11 35 18 66 15 69 -3 3 -26 1 -50 -6 -25 -7 -54 -12 -66 -12 -25
0 -77 26 -105 52 -26 23 -27 22 -49 -62 -10 -36 -27 -75 -39 -88 -11 -12 -32
-43 -46 -68 l-25 -45 -101 -3 c-66 -2 -129 -12 -180 -26 -44 -12 -110 -31
-149 -42 -38 -11 -85 -26 -103 -34 -18 -8 -41 -14 -51 -14 -10 0 -24 -7 -31
-15 -7 -8 -17 -15 -22 -15 -13 0 -141 -85 -158 -105 -8 -9 -34 -30 -59 -47
-48 -32 -86 -70 -150 -149 -33 -41 -45 -67 -68 -154 -5 -20 -9 24 -11 125 l-3
155 -62 50 c-138 113 -233 158 -472 225 -125 36 -166 43 -254 45 l-105 3 -19
43 c-10 24 -27 51 -39 60 -20 15 -58 114 -58 150 0 9 -7 19 -15 23 -8 3 -15 1
-15 -4z m816 -1085 c4 -8 0 -32 -9 -53 -26 -65 -31 -130 -12 -158 13 -21 14
-32 6 -56 -18 -52 -16 -55 42 -51 33 3 65 -1 87 -10 51 -22 98 -75 103 -117
l4 -35 1 37 c2 41 9 45 87 50 28 2 40 8 40 18 0 11 -15 16 -62 18 l-63 3 1
172 c1 95 3 163 6 152 22 -92 99 -229 151 -272 24 -18 27 -29 28 -80 0 -32 -3
-66 -8 -75 -5 -11 -5 -26 1 -37 8 -14 7 -22 -4 -31 -14 -11 -19 -7 -16 13 0 4
-4 7 -9 7 -6 0 -15 12 -20 26 -15 38 -29 20 -19 -23 15 -64 12 -75 -13 -67
-13 5 -39 8 -58 9 -30 0 -36 4 -41 30 -4 17 -7 23 -8 13 -2 -30 -26 -25 -46
11 -35 62 -113 101 -202 101 -54 0 -57 -4 -72 -110 -9 -67 -29 -109 -42 -89
-13 21 -11 32 7 25 11 -4 14 -1 12 12 -2 9 -10 16 -16 14 -7 -1 -12 2 -12 8 0
5 3 10 8 10 4 0 7 28 6 62 -1 75 2 88 26 88 10 0 20 6 23 14 7 17 -35 27 -75
19 -27 -5 -40 -23 -17 -23 6 0 8 -7 5 -16 -3 -8 -1 -25 5 -36 7 -13 8 -23 1
-27 -5 -3 -13 -34 -17 -68 -11 -101 -25 -73 -25 52 l0 115 -215 0 c-141 0
-215 -4 -215 -10 0 -6 6 -13 13 -15 12 -4 202 -14 293 -15 39 0 53 -4 58 -17
8 -21 -5 -34 -46 -48 -27 -8 -33 -16 -33 -37 0 -15 -8 -35 -17 -45 -12 -11
-18 -13 -18 -5 0 7 -4 11 -9 7 -5 -3 -12 3 -14 12 -3 10 -5 3 -6 -14 -1 -32
-15 -45 -23 -22 -2 6 -9 0 -15 -13 -10 -22 -7 -29 17 -58 16 -19 37 -49 47
-67 13 -25 24 -33 45 -33 15 0 29 4 32 9 4 6 21 5 43 -1 32 -9 39 -7 53 10 9
11 26 22 37 26 12 4 24 13 27 21 3 9 18 15 36 15 41 0 57 -37 34 -81 -25 -50
-84 -109 -108 -109 -12 0 -28 -6 -34 -12 -10 -10 -15 -10 -22 2 -9 13 -11 13
-19 1 -8 -12 -18 -7 -51 27 -43 43 -76 52 -98 30 -16 -16 -98 -26 -109 -14
-11 11 26 53 56 66 22 9 31 19 31 36 0 36 -18 74 -35 74 -12 0 -14 8 -9 40 6
34 4 39 -9 35 -20 -8 -85 50 -93 82 -4 16 -19 30 -40 39 -18 7 -36 19 -39 24
-16 26 -56 30 -100 11 -53 -24 -77 -58 -83 -120 -4 -41 -1 -51 22 -76 41 -44
22 -42 -30 4 l-48 42 -13 -33 c-14 -32 -15 -32 -29 -14 -20 28 -17 45 10 57
22 10 35 33 66 115 6 18 24 44 40 59 23 22 40 28 97 33 55 4 73 10 95 31 15
14 67 49 115 78 49 29 120 71 158 94 128 77 199 114 245 128 25 7 50 15 55 16
28 9 66 3 71 -10z m778 -9 c41 -14 135 -63 212 -109 76 -46 171 -102 209 -125
39 -22 81 -52 94 -66 20 -21 34 -26 72 -26 93 0 140 -34 164 -117 15 -52 33
-77 69 -98 15 -9 16 -14 5 -37 -9 -22 -15 -25 -26 -17 -7 6 -13 20 -13 30 0
26 -5 24 -45 -12 -70 -64 -101 -77 -44 -18 28 29 30 35 24 77 -9 62 -21 84
-58 108 -54 35 -82 37 -114 10 -16 -13 -40 -26 -53 -28 -17 -2 -26 -10 -28
-24 -2 -12 -21 -41 -43 -64 -30 -32 -44 -40 -60 -35 -18 6 -20 4 -14 -14 4
-12 2 -21 -4 -21 -6 0 -11 6 -11 13 -1 6 -8 -1 -17 -18 l-17 -30 -6 30 c-4 17
-13 44 -22 60 -8 17 -13 37 -11 46 5 19 -54 39 -84 28 -18 -7 -22 -3 -28 28
-3 19 -5 37 -2 39 2 2 82 6 177 9 153 5 206 13 189 30 -4 3 -367 7 -531 5 -18
0 -28 -5 -28 -15 0 -9 10 -15 26 -15 14 0 22 -4 19 -10 -3 -5 1 -26 11 -45 13
-27 14 -38 4 -49 -17 -22 -20 -84 -4 -100 11 -12 11 -15 -1 -20 -10 -4 -15 1
-15 14 0 11 -4 20 -9 20 -5 0 -12 28 -16 63 -12 101 -16 107 -77 107 -79 0
-172 -47 -195 -97 -10 -21 -18 -39 -19 -41 -1 -2 -11 1 -22 7 -17 9 -18 16
-10 68 10 70 31 100 89 131 37 20 54 23 102 19 57 -5 59 -4 52 16 -14 44 -17
85 -6 91 16 10 13 103 -4 151 -23 62 -20 75 16 75 17 0 63 -11 103 -24z m86
-451 c0 -52 -4 -95 -9 -95 -15 0 -22 34 -20 89 3 53 -6 76 -17 47 -3 -9 -10
-16 -14 -16 -8 0 2 25 23 58 5 6 15 12 23 12 11 0 14 -19 14 -95z m-790 -25
c0 -11 -4 -20 -9 -20 -14 0 -23 18 -16 30 10 17 25 11 25 -10z m523 5 c8 -18
-11 -31 -25 -17 -11 11 -3 32 12 32 4 0 10 -7 13 -15z m-886 -27 c-3 -7 -5 -2
-5 12 0 14 2 19 5 13 2 -7 2 -19 0 -25z m1229 -5 c-10 -10 -19 5 -10 18 6 11
8 11 12 0 2 -7 1 -15 -2 -18z m-756 -73 c-8 -15 -8 -20 2 -21 7 0 3 -5 -10
-11 -14 -7 -21 -17 -17 -26 3 -10 0 -12 -10 -8 -10 4 -15 -1 -15 -15 0 -11 -4
-17 -10 -14 -18 11 -11 42 15 66 13 13 25 30 25 37 0 6 7 12 15 12 13 0 14 -4
5 -20z m317 -22 c28 -41 34 -88 12 -88 -6 0 -8 8 -5 18 4 12 -3 28 -17 44 -25
27 -41 68 -27 68 5 0 22 -19 37 -42z m643 -12 c0 -6 -10 -16 -22 -21 -31 -13
-39 -92 -11 -102 26 -9 63 -44 63 -60 0 -20 -84 -12 -108 10 -19 17 -22 17
-51 3 -17 -9 -41 -30 -53 -46 -24 -33 -48 -40 -48 -14 0 13 -3 14 -15 4 -8 -7
-20 -8 -27 -4 -7 5 -20 7 -29 6 -20 -3 -107 91 -116 126 -8 33 8 56 42 60 19
3 32 -3 42 -18 10 -13 22 -20 34 -17 13 3 19 -1 21 -17 2 -17 9 -21 33 -19 41
4 44 3 91 -3 40 -6 41 -5 57 35 9 22 28 48 42 57 14 9 24 23 21 29 -3 8 2 11
15 8 10 -3 19 -10 19 -17z m-1045 -106 c-3 -5 -15 -10 -25 -10 -31 0 -34 -21
-6 -44 31 -26 43 -89 24 -126 -8 -14 -18 -25 -23 -26 -6 0 -25 -4 -43 -8 -45
-11 -62 6 -62 59 0 31 8 53 30 83 17 23 30 45 30 50 0 4 5 13 12 20 15 15 72
16 63 2z m499 4 c9 -3 16 -10 16 -15 0 -5 14 -28 31 -52 41 -59 50 -121 20
-149 -17 -15 -26 -17 -34 -9 -6 6 -21 11 -33 11 -55 0 -75 107 -29 150 30 28
32 50 5 50 -11 0 -20 5 -20 10 0 11 20 13 44 4z m76 -1318 c0 -8 3 -21 6 -30
4 -11 0 -16 -14 -16 -22 0 -35 22 -26 45 8 19 34 20 34 1z m-1829 -938 c8 -7
23 -23 33 -36 l19 -22 -41 22 c-37 20 -56 48 -34 48 5 0 15 -6 23 -12z m2984
0 c-3 -7 -19 -21 -36 -30 l-30 -18 21 30 c21 29 54 42 45 18z m-2652 -136 c22
-20 22 -27 -4 -29 -11 -1 -23 5 -26 13 -3 8 -11 14 -19 14 -8 0 -14 2 -14 4 0
2 -3 12 -6 21 -6 14 -3 14 22 3 16 -6 37 -18 47 -26z m2351 9 c-5 -5 -26 -18
-46 -30 l-37 -20 8 22 c5 12 23 27 42 33 35 12 49 10 33 -5z"/>
<path d="M4847 2843 c-4 -3 -7 -15 -7 -25 0 -13 7 -18 25 -18 14 0 25 4 25 8
0 14 -36 43 -43 35z"/>
<path d="M5682 2770 c0 -14 2 -19 5 -12 2 6 2 18 0 25 -3 6 -5 1 -5 -13z"/>
<path d="M866 3972 c-4 -12 0 -71 9 -133 12 -87 22 -124 45 -163 42 -75 104
-137 148 -151 34 -10 29 26 -8 53 -16 12 -38 42 -49 67 -11 25 -27 45 -35 45
-11 0 -17 15 -22 50 -4 28 -11 53 -15 56 -5 3 -9 15 -9 27 0 13 -7 32 -15 44
-8 12 -17 41 -20 65 -7 50 -20 69 -29 40z"/>
<path d="M8907 3984 c-4 -4 -7 -24 -7 -45 0 -21 -10 -54 -21 -74 -12 -20 -19
-39 -16 -42 4 -3 0 -15 -8 -27 -8 -11 -15 -35 -15 -53 0 -19 -7 -37 -17 -45
-10 -7 -24 -26 -32 -43 -8 -16 -34 -49 -58 -71 -52 -50 -56 -72 -13 -66 39 6
110 72 153 144 25 42 38 78 46 135 22 144 17 216 -12 187z"/>
<path d="M1110 3630 c0 -5 5 -10 11 -10 5 0 7 5 4 10 -3 6 -8 10 -11 10 -2 0
-4 -4 -4 -10z"/>
<path d="M8660 3615 c-12 -32 -12 -35 -2 -35 12 0 31 49 21 56 -5 3 -14 -7
-19 -21z"/>
<path d="M1135 3590 c3 -5 8 -10 11 -10 2 0 4 5 4 10 0 6 -5 10 -11 10 -5 0
-7 -4 -4 -10z"/>
<path d="M8631 3574 c0 -11 3 -14 6 -6 3 7 2 16 -1 19 -3 4 -6 -2 -5 -13z"/>
<path d="M8370 3551 c0 -5 7 -11 15 -15 8 -3 15 -1 15 3 0 5 -7 11 -15 15 -8
3 -15 1 -15 -3z"/>
<path d="M60 3495 c0 -32 2 -56 4 -54 8 8 10 98 3 105 -4 4 -7 -19 -7 -51z"/>
<path d="M28 3394 c-8 -24 -12 -46 -8 -49 17 -10 41 -109 35 -141 -4 -22 0
-44 10 -64 28 -55 37 -26 31 106 -6 126 -14 161 -38 181 -11 10 -17 3 -30 -33z"/>
<path d="M1190 3389 c0 -24 48 -109 61 -109 14 0 11 46 -7 90 -18 44 -54 57
-54 19z"/>
<path d="M69 3043 c-19 -5 -15 -46 6 -63 16 -13 24 -2 30 40 4 30 -1 33 -36
23z"/>
<path d="M4430 2263 c-22 -9 -30 -25 -20 -43 5 -9 7 -26 4 -37 -3 -12 -1 -24
4 -27 12 -7 100 13 119 27 35 25 -61 97 -107 80z"/>
<path d="M5312 2257 c-63 -19 -82 -87 -25 -87 15 0 40 -6 55 -14 34 -18 44 -6
43 53 0 51 -20 64 -73 48z"/>
<path d="M4268 2179 c-10 -5 -18 -17 -18 -26 0 -14 -2 -14 -20 2 -18 16 -21
16 -43 2 -51 -33 -70 -116 -43 -182 13 -30 18 -34 54 -33 l39 0 42 90 c25 52
47 87 54 85 15 -5 47 10 47 23 0 11 -63 50 -81 50 -8 0 -22 -5 -31 -11z"/>
<path d="M5460 2175 c-7 -8 -19 -15 -26 -15 -8 0 -14 -9 -14 -19 0 -20 22 -33
43 -25 9 3 27 -25 54 -84 l41 -88 40 -1 c33 -2 41 2 51 23 17 38 13 115 -8
154 -17 32 -23 35 -60 33 -28 -1 -41 2 -41 12 0 26 -60 34 -80 10z"/>
<path d="M4479 2044 c-9 -3 -21 -16 -27 -29 -7 -14 -16 -25 -22 -25 -5 0 -10
-6 -10 -14 0 -17 -22 -26 -48 -20 -15 5 -22 -3 -34 -33 -23 -57 -13 -107 28
-143 57 -50 139 -31 165 37 10 27 29 22 29 -8 0 -17 3 -18 20 -9 28 15 50 63
52 113 2 33 -4 52 -27 85 -18 25 -38 42 -50 42 -11 0 -29 2 -40 4 -11 2 -27 2
-36 0z m16 -133 c3 -5 1 -12 -5 -16 -5 -3 -10 1 -10 9 0 18 6 21 15 7z"/>
<path d="M5256 2043 c-43 -7 -95 -75 -96 -127 0 -44 38 -116 61 -116 12 0 19
7 19 20 0 28 13 25 27 -8 16 -35 61 -62 104 -62 23 0 41 9 65 35 29 29 34 41
34 82 0 62 -22 95 -56 87 -13 -3 -24 -2 -24 3 0 16 -64 81 -85 85 -11 3 -33 3
-49 1z m51 -145 c-3 -8 -6 -5 -6 6 -1 11 2 17 5 13 3 -3 4 -12 1 -19z"/>
<path d="M2484 943 c-18 -2 -40 -14 -50 -25 -19 -21 -19 -21 11 -14 93 22 108
28 94 37 -8 5 -16 8 -19 7 -3 -1 -19 -3 -36 -5z"/>
<path d="M7256 941 c-8 -13 -1 -16 62 -31 60 -14 75 -9 40 13 -30 19 -95 30
-102 18z"/>
<path d="M7400 900 c0 -5 5 -10 11 -10 5 0 7 5 4 10 -3 6 -8 10 -11 10 -2 0
-4 -4 -4 -10z"/>
<path d="M7498 878 c5 -5 16 -8 23 -6 8 3 3 7 -10 11 -17 4 -21 3 -13 -5z"/>
<path d="M7685 840 c3 -5 13 -10 21 -10 8 0 12 5 9 10 -3 6 -13 10 -21 10 -8
0 -12 -4 -9 -10z"/>
<path d="M2802 694 c3 -3 37 -10 74 -15 38 -5 77 -12 87 -15 27 -8 20 11 -8
24 -26 12 -164 17 -153 6z"/>
<path d="M6844 690 c-12 -5 -25 -14 -30 -21 -5 -9 1 -11 27 -6 19 3 60 11 93
16 32 6 61 13 64 16 9 9 -131 4 -154 -5z"/>
<path d="M3015 643 c21 -14 59 -18 51 -4 -3 5 -20 11 -37 13 -29 5 -30 4 -14
-9z"/>
<path d="M6762 650 c-42 -10 -53 -20 -21 -20 14 0 34 7 45 15 10 8 17 14 14
14 -3 -1 -20 -5 -38 -9z"/>
<path d="M290 493 c0 -10 4 -25 10 -33 8 -12 10 -12 16 3 7 20 -1 47 -16 47
-5 0 -10 -8 -10 -17z"/>
<path d="M9487 503 c-10 -9 -9 -53 2 -53 12 0 22 43 13 52 -5 5 -11 5 -15 1z"/>
<path d="M100 460 c0 -11 5 -20 10 -20 6 0 10 9 10 20 0 11 -4 20 -10 20 -5 0
-10 -9 -10 -20z"/>
<path d="M50 372 c0 -5 9 -12 21 -15 13 -3 19 -1 16 6 -5 15 -37 22 -37 9z"/>
<path d="M386 225 c-21 -22 -12 -35 25 -35 26 0 30 3 27 22 -4 28 -30 34 -52
13z"/>
<path d="M9360 209 c0 -29 2 -31 28 -24 15 3 31 10 36 15 14 14 -13 40 -40 40
-20 0 -24 -5 -24 -31z"/>
<path d="M35 150 c-3 -5 -12 -7 -20 -3 -12 4 -15 -8 -15 -71 l0 -76 1057 0
c581 0 1054 2 1052 4 -3 3 -432 7 -954 11 -523 3 -978 8 -1012 11 -48 4 -61 9
-56 20 3 8 1 14 -5 14 -15 0 -24 31 -12 45 8 10 8 19 -2 34 -14 23 -24 26 -33
11z"/>
<path d="M9360 27 c-3 -3 -383 -8 -845 -12 -461 -3 -841 -8 -844 -10 -2 -3
431 -5 962 -5 638 0 967 3 967 10 0 6 -29 10 -67 10 -38 0 -90 3 -118 6 -27 3
-52 4 -55 1z"/>
<path d="M2198 3 c17 -2 47 -2 65 0 17 2 3 4 -33 4 -36 0 -50 -2 -32 -4z"/>
<path d="M2468 3 c12 -2 30 -2 40 0 9 3 -1 5 -23 4 -22 0 -30 -2 -17 -4z"/>
<path d="M2588 3 c17 -2 47 -2 65 0 17 2 3 4 -33 4 -36 0 -50 -2 -32 -4z"/>
<path d="M7098 3 c34 -2 88 -2 120 0 31 2 3 3 -63 3 -66 0 -92 -1 -57 -3z"/>
<path d="M7298 3 c12 -2 32 -2 45 0 12 2 2 4 -23 4 -25 0 -35 -2 -22 -4z"/>
<path d="M7488 3 c28 -2 76 -2 105 0 28 2 5 3 -53 3 -58 0 -81 -1 -52 -3z"/>
</g>
</svg>
