<?xml version="1.0" encoding="UTF-8" standalone="no"?>
<!-- Created with Inkscape (http://www.inkscape.org/) -->

<svg
   xmlns:dc="http://purl.org/dc/elements/1.1/"
   xmlns:cc="http://creativecommons.org/ns#"
   xmlns:rdf="http://www.w3.org/1999/02/22-rdf-syntax-ns#"
   xmlns:svg="http://www.w3.org/2000/svg"
   xmlns="http://www.w3.org/2000/svg"
   xmlns:sodipodi="http://sodipodi.sourceforge.net/DTD/sodipodi-0.dtd"
   xmlns:inkscape="http://www.inkscape.org/namespaces/inkscape"
   width="51.630272mm"
   height="74.373154mm"
   viewBox="0 0 51.630272 74.373154"
   version="1.1"
   id="svg4582"
   inkscape:version="0.92.2 (5c3e80d, 2017-08-06)"
   sodipodi:docname="logo_factoria_a.svg">
  <defs
     id="defs4576" />
  <sodipodi:namedview
     id="base"
     pagecolor="#ffffff"
     bordercolor="#666666"
     borderopacity="1.0"
     inkscape:pageopacity="0.0"
     inkscape:pageshadow="2"
     inkscape:zoom="1.979899"
     inkscape:cx="115.18865"
     inkscape:cy="174.838"
     inkscape:document-units="mm"
     inkscape:current-layer="layer1"
     showgrid="false"
     fit-margin-top="0"
     fit-margin-left="0"
     fit-margin-right="0"
     fit-margin-bottom="0"
     inkscape:window-width="1280"
     inkscape:window-height="969"
     inkscape:window-x="1360"
     inkscape:window-y="27"
     inkscape:window-maximized="1" />
  <metadata
     id="metadata4579">
    <rdf:RDF>
      <cc:Work
         rdf:about="">
        <dc:format>image/svg+xml</dc:format>
        <dc:type
           rdf:resource="http://purl.org/dc/dcmitype/StillImage" />
        <dc:title></dc:title>
      </cc:Work>
    </rdf:RDF>
  </metadata>
  <g
     inkscape:label="Capa 1"
     inkscape:groupmode="layer"
     id="layer1"
     transform="translate(-22.565814,-11.861037)">
    <path
       style="fill:#edae00;stroke-width:0.7;stroke-miterlimit:4;stroke-dasharray:none;fill-opacity:1;stroke:#edae00;stroke-opacity:1"
       d="m 41.571858,85.946438 c -0.59902,-0.14321 -1.273708,-0.37445 -1.499306,-0.51388 -0.500555,-0.30936 -0.550329,-2.32853 -0.0574,-2.32853 0.194027,0 0.352777,0.40081 0.352777,0.89068 0,0.60053 0.258565,0.98735 0.79375,1.18747 1.371992,0.51302 4.757198,0.80133 6.442128,0.54865 2.035359,-0.30522 2.013289,-1.04387 -0.06198,-2.07413 -1.830527,-0.90876 -2.239055,-2.05459 -1.194036,-3.349 0.403106,-0.49931 0.925875,-1.30471 1.161709,-1.78978 0.235831,-0.48507 0.511396,-0.96132 0.612356,-1.05833 0.32548,-0.31275 1.05685,-1.56328 1.44334,-2.46789 0.20688,-0.48421 0.76212,-1.38642 1.23388,-2.00493 1.03083,-1.35149 1.03657,-1.44512 0.19396,-3.16676 -0.98759,-2.01788 -3.216778,-7.44071 -3.216778,-7.82529 0,-0.97565 3.260868,-0.80781 6.879168,0.35407 3.13985,1.00825 6.4346,2.63844 6.83155,3.38016 0.33906,0.63354 1.00344,6.47557 1.00605,8.84652 0.002,1.92154 0.75779,2.35607 4.08214,2.34735 3.30306,-0.009 4.8372,-0.3267 4.8372,-1.00278 0,-0.70982 -1.17976,-1.62845 -2.5922,-2.01844 -1.83483,-0.50663 -2.34627,-1.17751 -2.34936,-3.0818 -0.005,-2.94055 -0.64366,-7.3232 -1.25419,-8.6035 -0.35544,-0.74536 -1.07693,-1.47836 -1.78972,-1.81827 -1.14782,-0.54735 -4.85648,-1.46234 -7.62494,-1.88119 -1.21487,-0.18381 -1.32292,-0.29338 -1.32292,-1.34152 0,-1.09132 -0.11987,-1.19086 -2.73403,-2.27048 -1.50371,-0.62101 -4.162775,-1.6091 -5.909025,-2.19575 -1.74625,-0.58665 -3.450658,-1.21091 -3.787574,-1.38724 -0.336916,-0.17633 -0.760317,-0.3206 -0.940892,-0.3206 -0.180575,0 -1.095541,-0.34348 -2.033259,-0.76328 -0.937718,-0.4198 -1.821337,-0.73819 -1.963598,-0.70753 -0.142262,0.0307 0.04295,-0.70945 0.411592,-1.64469 0.837681,-2.12521 0.561308,-2.6113 -1.627666,-2.86278 l -1.70027,-0.19533 -0.108468,-1.69882 c -0.254,-3.97814 3.5634,-8.07978 8.24774,-8.86186 1.206454,-0.20143 1.669655,-0.0872 2.892489,0.71344 1.646652,1.07809 2.506823,2.80722 2.790461,5.60943 0.49509,4.89131 0.50148,4.90275 2.60092,4.6541 0.93884,-0.11119 2.20977,-0.46217 2.8243,-0.77995 0.61638,-0.31875 2.07725,-0.60399 3.25843,-0.63623 l 2.14111,-0.0584 1.01955,2.82222 c 0.74043,2.04957 1.05153,3.62905 1.13633,5.76926 0.0642,1.62087 0.28838,3.11865 0.49813,3.3284 0.2733,0.2733 0.85771,0.14329 2.06241,-0.45878 0.92457,-0.46208 2.22363,-0.92856 2.88679,-1.03662 0.66316,-0.10806 1.26906,-0.38641 1.34644,-0.61854 0.0774,-0.23214 -0.50177,-1.11904 -1.28699,-1.97091 -1.2513,-1.3575 -3.88617,-5.89471 -3.90443,-6.72338 -0.004,-0.16471 -0.21898,-0.79971 -0.47856,-1.41111 -1.73059,-4.07623 -2.77065,-7.90915 -2.49325,-9.18833 0.12179,-0.56163 0.75834,-1.55803 1.41455,-2.21424 0.65621,-0.6562 1.5122,-1.81857 1.9022,-2.58305 0.39,-0.76447 1.01564,-1.554 1.39031,-1.75451 0.90376,-0.48368 3.8213,-0.46207 6.59411,0.0488 1.23403,0.22737 2.34642,0.31068 2.47198,0.18512 0.46805,-0.46805 -0.7063,-4.64008 -1.54106,-5.47484 -0.78474,-0.78475 -0.8774,-0.79967 -1.61018,-0.25929 -0.42764,0.31536 -1.62031,0.98079 -2.65038,1.47874 -2.25094,1.08814 -3.98545,0.93826 -4.87631,-0.42137 -0.54141,-0.8263 -0.52217,-0.94284 0.38116,-2.30786 0.67431,-1.01895 1.52957,-1.70232 2.93682,-2.34658 2.62665,-1.20252 3.72743,-2.369098 3.19985,-3.391124 -0.70518,-1.366079 -1.451,-1.985667 -2.84065,-2.35986 -1.79009,-0.482023 -2.74885,-0.166494 -2.74885,0.904653 0,0.460544 -0.1428,0.925606 -0.31733,1.033473 -0.17454,0.107866 -0.51069,1.002134 -0.74702,1.987261 -0.23633,0.985127 -0.96665,2.589067 -1.62295,3.564317 -0.65629,0.97525 -1.19326,1.91039 -1.19326,2.07809 0,0.1677 -0.3307,0.4819 -0.7349,0.69822 -0.58628,0.31377 -0.87165,0.26955 -1.41111,-0.21865 -0.8715,-0.78869 -0.92433,-4.23483 -0.10194,-6.648442 0.57163,-1.677623 0.57017,-1.689527 -0.31669,-2.576386 -1.1228,-1.1228 -2.1418,-1.122426 -4.5972,0.0017 -3.19617,1.463258 -3.34381,3.067632 -0.39564,4.299458 2.18434,0.91267 3.51475,4.79655 1.73062,5.0522 -0.40264,0.0577 -1.54074,-0.51667 -2.62135,-1.32291 -2.21024,-1.64906 -3.07504,-1.78226 -3.545067,-0.546 -0.67165,1.76657 0.181087,2.63029 3.137627,3.17806 3.13494,0.58083 3.35817,2.02828 0.54065,3.50568 -1.17786,0.61763 -2.08089,0.73374 -6.003845,0.77202 -3.056355,0.0298 -5.521657,0.25821 -7.291915,0.67555 -2.335559,0.55061 -2.947108,0.87337 -4.826114,2.54714 -2.979429,2.65399 -3.630456,4.19876 -3.752402,8.90377 -0.0528,2.03729 -0.108066,4.14466 -0.122808,4.68304 -0.01941,0.70891 -0.272542,1.0723 -0.917835,1.31764 -0.490067,0.18632 -1.234376,0.65865 -1.65402,1.0496 -0.419644,0.39096 -0.872963,0.71084 -1.007376,0.71084 -0.134412,0 -0.690677,0.58511 -1.236142,1.30025 -1.262005,1.65458 -1.76168,4.69754 -1.010043,6.15105 0.27882,0.53918 0.506946,1.38728 0.506946,1.88467 0,0.91244 0.790686,2.66645 3.473107,7.70454 0.80618,1.51415 1.465782,3.03757 1.465782,3.38538 0,0.34781 0.234418,1.10227 0.520928,1.6766 0.28651,0.57432 0.676165,2.14039 0.865899,3.48016 0.265453,1.87443 0.531636,2.57958 1.154767,3.05908 0.906118,0.69725 3.458033,0.85116 4.537153,0.27363 1.353351,-0.72429 0.721901,-3.23035 -1.538572,-6.1062 -1.561126,-1.98611 -2.717953,-3.74292 -2.717953,-4.12761 0,-0.18541 -0.152784,-0.33711 -0.33952,-0.33711 -0.463679,0 -2.717168,-4.76358 -3.132513,-6.62173 -0.185202,-0.82854 -0.61206,-1.92664 -0.948573,-2.44023 -1.085107,-1.65608 -0.124605,-7.87137 1.216431,-7.87137 0.169035,0 0.825764,0.48428 1.459398,1.07618 0.788739,0.73679 1.438081,1.04274 2.058999,0.97014 0.705928,-0.0825 1.016559,0.12174 1.401544,0.92168 0.432774,0.89925 1.618765,6.88511 1.963171,9.90839 0.260042,2.2827 0.673089,3.34801 1.510978,3.89701 1.02012,0.66841 2.279221,0.45943 3.373337,-0.55989 0.408106,-0.38021 0.973852,-0.69129 1.257214,-0.69129 0.648858,0 2.879534,2.26702 2.879534,2.92645 0,0.27058 0.333696,0.79396 0.741548,1.16307 0.614906,0.55648 0.70575,0.93226 0.531934,2.20039 -0.115288,0.84111 -0.430372,2.03216 -0.700187,2.64677 -0.269814,0.61462 -0.67778,1.61069 -0.90659,2.21351 -0.22881,0.60281 -1.034504,1.79343 -1.790431,2.64583 -0.755927,0.85239 -1.559091,1.98637 -1.784809,2.51995 -0.225718,0.53358 -0.560585,0.97014 -0.744148,0.97014 -0.621958,0 0.15929,-1.57812 1.659109,-3.35139 1.432835,-1.69408 2.868708,-4.05694 2.465334,-4.05694 -0.106469,0 0.03583,-0.35719 0.316228,-0.79375 0.280395,-0.43657 0.613997,-1.51059 0.741338,-2.38672 0.189602,-1.3045 0.09875,-1.76177 -0.501676,-2.52509 -0.403263,-0.51267 -0.733206,-1.07582 -0.733206,-1.25145 0,-0.35921 -1.851992,-2.21522 -2.210422,-2.21522 -0.127345,0 -0.533321,0.32393 -0.902167,0.71984 -0.368847,0.39591 -1.25442,0.81457 -1.967941,0.93036 -1.04863,0.17017 -1.463803,0.0541 -2.165871,-0.60545 -1.061238,-0.99698 -1.448252,-2.21895 -2.286141,-7.21836 -1.041987,-6.21718 -1.389509,-7.23194 -2.476708,-7.23194 -0.405804,0 -1.287179,-0.41901 -1.958612,-0.93114 -0.671432,-0.51213 -1.272419,-0.86932 -1.335527,-0.79375 -0.24607,0.29464 -0.924388,3.4974 -0.924388,4.36461 0,0.50389 0.294584,1.50515 0.65463,2.22503 0.360048,0.71987 0.75692,1.84463 0.881939,2.49945 0.320724,1.67989 1.955232,5.28555 3.058492,6.74691 0.512687,0.6791 1.037889,1.47285 1.167114,1.76389 0.129225,0.29104 0.787438,1.24354 1.462695,2.11667 1.826855,2.36216 2.380842,3.50843 2.491925,5.15611 0.09214,1.36672 0.01268,1.52249 -0.988201,1.93707 -0.59862,0.24796 -1.860495,0.45083 -2.804166,0.45083 -2.310136,0 -3.361957,-1.02463 -3.579625,-3.48707 -0.08576,-0.97014 -0.489668,-2.77675 -0.897584,-4.0147 -0.407915,-1.23795 -0.741664,-2.39176 -0.741664,-2.56402 0,-0.17226 -0.633294,-1.35562 -1.407319,-2.62969 -2.023301,-3.33042 -3.53157,-6.62095 -3.53157,-7.70468 0,-0.51548 -0.225925,-1.37411 -0.502056,-1.90809 -0.351267,-0.67928 -0.443117,-1.62086 -0.305816,-3.13503 0.188228,-2.07582 0.282702,-2.2517 2.314367,-4.30871 1.16497,-1.17951 2.493213,-2.23869 2.95165,-2.35376 0.800109,-0.20081 1.059639,-0.95959 0.89003,-2.60215 -0.133832,-1.29608 -0.102981,-3.84088 0.06501,-5.36273 0.300059,-2.71823 1.34317,-4.55635 3.866425,-6.81322 2.035847,-1.82092 2.682746,-2.17698 5.252349,-2.89092 2.395271,-0.6655 3.420152,-0.77397 5.611114,-0.59389 3.169576,0.26051 7.585415,-0.3778 8.023005,-1.15973 0.16278,-0.29086 0.44044,-0.51462 0.61702,-0.49723 0.17659,0.0174 0.32107,-0.15876 0.32107,-0.39142 0,-0.24233 -0.96594,-0.59772 -2.26125,-0.83198 -3.011408,-0.54461 -4.174107,-2.12371 -3.147877,-4.27523 0.751427,-1.5754 2.181447,-1.50311 4.474407,0.22618 2.09128,1.57718 2.52817,1.71752 2.50972,0.80614 -0.0238,-1.17323 -0.9637,-2.32621 -2.67726,-3.28408 -3.1502,-1.760923 -2.84654,-3.790398 0.8274,-5.529927 2.42968,-1.1504 3.85341,-1.187877 5.32479,-0.140165 1.20965,0.861351 1.40045,1.755437 0.73904,3.463151 -0.58388,1.507551 -0.77341,4.910121 -0.32062,5.756161 0.38704,0.7232 0.41916,0.71214 1.22784,-0.42272 1.30942,-1.83758 2.27412,-3.72596 2.62948,-5.147187 0.55469,-2.218382 1.30914,-4.012848 1.82429,-4.339043 0.79195,-0.501476 2.51345,-0.368755 3.83606,0.295748 1.2149,0.610387 2.82926,2.590022 2.82926,3.469432 0,0.813407 -1.89383,2.47219 -3.93406,3.44582 -3.91313,1.86738 -4.1104,4.58856 -0.29928,4.12818 0.29104,-0.0352 1.43426,-0.61456 2.54048,-1.28755 2.61206,-1.5891 3.6013,-1.40919 4.59424,0.83551 0.85871,1.94126 1.25346,5.51287 0.65049,5.88553 -0.22984,0.14205 -1.88634,-0.0183 -3.68111,-0.35635 -4.16083,-0.78367 -5.59853,-0.55634 -6.3381,1.00218 -0.29794,0.62785 -1.17098,1.82318 -1.94009,2.65627 -0.76911,0.8331 -1.47933,1.82429 -1.57827,2.20265 -0.21136,0.80824 0.374,3.06602 1.68641,6.50459 0.51839,1.35819 1.08939,2.94569 1.2689,3.52777 0.59317,1.92349 2.5158,5.26947 3.85147,6.70278 0.72325,0.77611 1.41013,1.68433 1.52641,2.01826 0.29151,0.83718 -0.58818,1.61258 -2.1512,1.89614 -0.72137,0.13086 -1.90056,0.53397 -2.62044,0.8958 -2.78815,1.40138 -3.86135,0.62196 -3.60235,-2.61625 0.14795,-1.84981 -0.007,-2.71964 -0.98443,-5.54534 l -1.15991,-3.35139 -1.6088,0.0788 c -0.88484,0.0434 -2.70038,0.4897 -4.03454,0.99187 -1.33416,0.50218 -2.75492,0.83043 -3.15725,0.72945 -1.1342,-0.28466 -1.856507,-1.90602 -2.137844,-4.79875 -0.331105,-3.40451 -0.97468,-4.92622 -2.494633,-5.89849 -1.373064,-0.87832 -2.506701,-0.80707 -4.925223,0.30952 -2.904118,1.34079 -5.101431,4.45119 -5.101431,7.22131 0,1.15301 0.04373,1.18988 1.411111,1.18988 1.920377,0 2.961166,1.02199 2.62808,2.58062 -0.132059,0.61795 -0.398318,1.32 -0.591685,1.56011 -0.260394,0.32334 0.07799,0.62069 1.304706,1.14653 0.910955,0.39048 1.804025,0.70996 1.9846,0.70996 0.180574,0 0.603976,0.1504 0.940892,0.33422 0.336916,0.18383 1.803199,0.68105 3.258407,1.10494 1.455208,0.42389 2.96333,0.94619 3.35139,1.16068 0.38806,0.21449 1.89501,0.86821 3.34878,1.45271 2.32089,0.93313 2.66505,1.18872 2.82222,2.09584 0.19732,1.13888 0.58089,1.30802 4.56159,2.01152 3.49686,0.618 5.19831,1.5098 6.0443,3.16809 0.67189,1.317 1.26548,4.94654 1.43598,8.78033 0.0865,1.94545 0.38592,2.36344 2.02475,2.82681 0.705,0.19933 1.72521,0.72781 2.26713,1.1744 0.8438,0.69538 0.93634,0.94075 0.64438,1.70867 -0.44393,1.16762 -0.94351,1.3311 -4.85239,1.58786 l -3.27004,0.2148 -1.29097,-1.29098 c -1.08866,-1.08866 -1.26332,-1.47001 -1.11446,-2.43335 0.1905,-1.23287 -0.28653,-6.83114 -0.66644,-7.82118 -0.64602,-1.68349 -12.12914,-5.45625 -12.13209,-3.98598 -5.3e-4,0.23883 0.50099,1.62485 1.11438,3.08006 0.61338,1.45521 1.28753,3.0824 1.4981,3.61597 0.21056,0.53358 0.50284,0.97014 0.64951,0.97014 0.71086,0 0.16552,2.37783 -0.80601,3.51445 -0.5742,0.67177 -1.044,1.3385 -1.044,1.48162 0,0.14313 -0.47625,0.9659 -1.05833,1.82838 -0.58208,0.86248 -1.05833,1.67478 -1.05833,1.80511 0,0.13033 -0.396879,0.75729 -0.881951,1.39325 -1.033992,1.35564 -1.127324,2.26011 -0.264583,2.56405 1.083844,0.38181 2.910414,1.89542 2.910414,2.41174 0,0.27434 -0.30706,0.66314 -0.68236,0.86399 -0.76642,0.41017 -5.966493,0.43236 -7.638708,0.0326 z m 7.350938,-15.07049 c -0.62033,-0.25031 -0.55088,-1.17747 0.0882,-1.17747 0.29398,0 0.52916,0.31357 0.52916,0.70555 0,0.38806 -0.0397,0.69302 -0.0882,0.6777 -0.0485,-0.0153 -0.28663,-0.10792 -0.52916,-0.20578 z m -1.763894,-3.52778 c -0.242536,-0.0979 -0.440973,-0.35064 -0.440973,-0.56173 0,-0.21109 -0.257379,-0.6682 -0.571951,-1.0158 -0.56203,-0.62103 -0.459835,-1.71661 0.160124,-1.71661 0.397645,0 2.175714,2.53814 2.175714,3.10577 0,0.43087 -0.53363,0.50685 -1.322914,0.18837 z m 0.264583,-1.31067 c 0,-0.0733 -0.277812,-0.35107 -0.61736,-0.61736 -0.559526,-0.43881 -0.572004,-0.42633 -0.133194,0.1332 0.460859,0.58764 0.750554,0.77451 0.750554,0.48416 z m -8.035136,-2.37451 c 0.09396,-0.27 0.471864,-0.4537 0.83979,-0.40824 0.621602,0.0768 0.619011,0.057 -0.0366,-0.27961 -0.613258,-0.31489 -0.70618,-0.72095 -0.710323,-3.10407 -0.0035,-2.02747 -0.168186,-2.9912 -0.632023,-3.6991 -0.34499,-0.52652 -0.53977,-1.09887 -0.432843,-1.27188 0.106926,-0.17301 -0.203977,-0.62793 -0.690895,-1.01095 -0.545422,-0.42902 -0.885305,-1.05359 -0.885305,-1.62681 0,-0.51175 -0.238125,-1.02182 -0.529167,-1.1335 -0.418481,-0.16059 -0.802006,-1.19067 -0.440972,-1.18437 0.361413,0.006 4.984543,1.76006 6.261805,2.37538 0.873125,0.42063 2.38125,0.93885 3.351389,1.1516 2.915761,0.6394 5.830521,1.82764 6.206491,2.53014 0.41226,0.77031 0.23856,0.97347 -2.33065,2.72614 -0.96754,0.66005 -1.933457,1.41143 -2.146473,1.66972 -0.213013,0.2583 -0.742005,0.52377 -1.175538,0.58993 -0.433533,0.0662 -0.894249,0.27549 -1.023814,0.46519 -0.129564,0.18968 -0.870571,0.58888 -1.646682,0.88709 -0.776112,0.29822 -1.380243,0.70011 -1.342516,0.89311 0.03773,0.19299 -0.121022,0.37098 -0.352778,0.39551 -0.231755,0.0246 -0.878654,0.15284 -1.437552,0.28511 -0.782827,0.18528 -0.97695,0.12778 -0.845346,-0.25039 z m 2.689269,-1.57507 c 0.611894,-0.30526 1.112534,-0.68515 1.112534,-0.84421 0,-0.15906 0.24637,-0.38373 0.547489,-0.49929 0.301119,-0.11554 0.461632,-0.0712 0.356696,0.0986 -0.306314,0.49563 2.068364,-0.81071 4.011859,-2.20697 0.9836,-0.70665 1.94675,-1.28482 2.14033,-1.28482 0.19358,0 0.35196,-0.0664 0.35196,-0.14753 0,-0.0811 0.0893,-0.38033 0.19851,-0.66486 0.14247,-0.37125 -0.27371,-0.67822 -1.47395,-1.08719 -0.91986,-0.31342 -2.031696,-0.56986 -2.470751,-0.56986 -0.439055,0 -0.896394,-0.15875 -1.01631,-0.35278 -0.119916,-0.19403 -0.565847,-0.35375 -0.990959,-0.35495 -0.425111,-0.001 -1.24918,-0.25622 -1.831263,-0.56673 -0.582084,-0.3105 -2.050521,-0.94316 -3.263195,-1.4059 -2.13406,-0.81434 -2.204861,-0.81926 -2.204861,-0.15311 0,0.37854 0.378072,1.05186 0.840159,1.49628 1.14116,1.09751 2.255831,4.62124 2.152724,6.80524 -0.07463,1.58073 0.02637,2.29306 0.325126,2.29306 0.05575,0 0.602009,-0.24975 1.213902,-0.555 z m 19.262948,1.3146 c -0.18433,-0.16431 -1.64483,-0.81715 -3.24555,-1.45077 -4.63752,-1.83567 -3.64058,-2.81281 1.5056,-1.4757 3.09839,0.80505 4.05065,1.3085 4.05065,2.14153 0,0.92819 -1.55673,1.457 -2.3107,0.78494 z m 1.42236,-0.74926 c 0.1164,-0.18834 -0.23142,-0.43605 -0.77293,-0.55047 -0.54151,-0.11443 -1.26022,-0.3572 -1.59714,-0.53951 -0.33692,-0.18231 -0.81317,-0.32983 -1.05833,-0.32783 -0.40774,0.003 2.41157,1.63729 2.973,1.72302 0.13407,0.0205 0.339,-0.11687 0.4554,-0.30521 z m -27.134815,-7.87486 c 0.132479,-0.34792 0.329738,-0.54371 0.438354,-0.43509 0.108616,0.10861 2.24e-4,0.39327 -0.240871,0.63257 -0.348409,0.34582 -0.388931,0.3053 -0.197483,-0.19748 z m 14.522195,-10.03766 c -0.0763,-0.14623 -0.17053,-0.86419 -0.2095,-1.59545 -0.0889,-1.66853 0.63793,-2.0301 2.29124,-1.13974 1.33299,0.71786 1.47741,1.22711 0.5713,2.01448 -0.72813,0.63271 -2.4544,1.10166 -2.65304,0.72071 z m 2.09163,-1.32421 c 0.0629,-0.19403 -0.25376,-0.52338 -0.70377,-0.73189 -0.74691,-0.34609 -0.80424,-0.30616 -0.65811,0.45828 0.15788,0.8259 1.12005,1.0192 1.36188,0.27361 z m 5.76488,-0.68473 c 0,-0.66788 0.50513,-0.95754 1.20289,-0.68978 0.89457,0.34328 0.66559,1.19812 -0.32094,1.19812 -0.53272,0 -0.88195,-0.20129 -0.88195,-0.50834 z m -5.19263,-1.69652 c -0.84052,-1.08971 -1.51259,-3.65615 -1.58393,-6.04852 -0.0896,-3.00389 0.30108,-3.74106 1.98255,-3.74106 0.89631,0 1.38607,0.32209 2.48041,1.63129 1.27312,1.52305 1.37232,1.80711 1.49506,4.28116 0.17217,3.47054 -0.3181,4.3181 -2.49778,4.3181 -0.8449,0 -1.68923,-0.19844 -1.87631,-0.44097 z m 3.42657,-0.96608 c 0.54273,-1.0141 0.0572,-5.10359 -0.70274,-5.91932 -0.33592,-0.36057 -0.80166,-1.01228 -1.03498,-1.44824 -0.30838,-0.5762 -0.68269,-0.76281 -1.37064,-0.68334 -0.89459,0.10335 -0.95259,0.22523 -1.05924,2.22601 -0.10286,1.92975 0.17606,3.49107 1.02039,5.71181 0.41475,1.09088 2.58223,1.16875 3.14721,0.11308 z m -23.28116,-1.59156 c 0,-0.29104 0.168119,-0.52916 0.373598,-0.52916 0.205478,0 0.283865,0.14519 0.174191,0.32264 -0.109674,0.17746 2e-5,0.40305 0.243763,0.50132 0.267358,0.10779 0.198254,0.18971 -0.174191,0.20652 -0.339548,0.0153 -0.617361,-0.21028 -0.617361,-0.50132 z m 0.940741,-0.76435 c -0.462394,-0.46239 -0.227204,-1.5287 0.337177,-1.5287 0.468768,0 0.492875,-0.0958 0.133193,-0.52917 -0.241543,-0.29104 -0.340356,-0.54901 -0.219584,-0.57327 0.120771,-0.0243 0.365105,-0.0639 0.542964,-0.0882 0.177859,-0.0243 0.455671,-0.18861 0.617361,-0.36524 0.170802,-0.18658 0.109212,-0.21481 -0.146991,-0.0674 -0.242534,0.13958 -0.440972,0.0964 -0.440972,-0.0961 0,-0.1924 0.3175,-0.45059 0.705556,-0.57376 0.388055,-0.12316 0.705555,-0.37198 0.705555,-0.55293 0,-0.18096 0.327937,-0.32901 0.728748,-0.32901 0.400811,0 1.050597,-0.17225 1.443969,-0.38277 0.899958,-0.48165 2.413394,-0.12678 2.413394,0.56588 0,0.28735 -0.213735,0.52245 -0.474966,0.52245 -0.673439,0 -2.545228,0.9759 -3.058886,1.59482 -0.238202,0.28701 -0.616977,0.52184 -0.841724,0.52184 -0.224745,0 -0.588393,0.47625 -0.808104,1.05834 -0.374634,0.99251 -1.101669,1.35816 -1.63669,0.82315 z m 14.581479,-1.46517 c 0,-0.8058 -2.263702,-2.63129 -4.646914,-3.74735 -2.073561,-0.97106 -3.128314,-1.25507 -4.661003,-1.25507 -1.450007,0 -1.98097,-0.13061 -1.98097,-0.48729 0,-1.5127 10.316419,-1.75456 10.844457,-0.25425 0.10939,0.31083 0.43838,0.84393 0.73108,1.18467 0.29269,0.34074 0.42869,0.72301 0.30221,0.84949 -0.12647,0.12648 -0.0795,0.41119 0.10428,0.6327 0.18384,0.2215 0.44088,1.06955 0.5712,1.88454 0.21596,1.35053 0.17045,1.4818 -0.51369,1.4818 -0.41286,0 -0.75065,-0.13015 -0.75065,-0.28924 z m -0.45241,-3.70245 -0.899024,-1.89878 -2.198254,-0.22976 c -1.209039,-0.12637 -2.929028,-0.21382 -3.822198,-0.19433 l -1.623945,0.0354 1.411111,0.31886 c 0.776111,0.17537 1.728611,0.46825 2.116667,0.65085 0.388055,0.1826 1.41993,0.64454 2.293055,1.02652 0.873125,0.38198 1.956433,1.11974 2.407349,1.63946 1.204579,1.38838 1.338929,0.8138 0.315239,-1.34826 z m 6.44964,-1.65557 c -0.6791,-0.37242 -1.67129,-0.76529 -2.20487,-0.87304 -1.18481,-0.23927 -1.27486,-1.08784 -0.14551,-1.37129 1.57457,-0.39519 2.70315,-1.59342 2.70315,-2.86996 0,-0.87552 0.18442,-1.24388 0.70556,-1.40928 0.95755,-0.30392 2.11667,0.10643 2.11667,0.74933 0,0.45822 0.10025,0.45518 0.78405,-0.0238 1.41503,-0.99113 1.94487,-0.71158 2.36509,1.24784 0.29865,1.39255 0.28264,2.00789 -0.0711,2.73402 -0.40267,0.82653 -0.63151,0.92386 -1.94053,0.82538 -1.30304,-0.098 -1.53434,-0.001 -1.89655,0.79375 -0.4878,1.07059 -0.77966,1.09439 -2.41595,0.19703 z m 1.8661,-1.05551 c 0.15376,-0.58798 0.48119,-0.70556 1.96482,-0.70556 h 1.78032 l -0.12863,-1.67569 c -0.0707,-0.92164 -0.14265,-1.80771 -0.15979,-1.96905 -0.0171,-0.16135 -0.61056,0.0647 -1.31872,0.5024 l -1.28756,0.79576 -0.62107,-0.76699 c -0.82435,-1.01802 -1.16453,-0.96978 -0.88947,0.12614 0.17898,0.71313 -0.007,1.10418 -0.92232,1.94028 -0.63056,0.57593 -1.30954,1.0474 -1.50883,1.0477 -0.44542,6.6e-4 1.94983,1.3071 2.50692,1.36733 0.2199,0.0238 0.48285,-0.27427 0.58433,-0.66232 z m 8.36445,-15.698616 c 0,-0.291042 0.23812,-0.529167 0.52917,-0.529167 0.29104,0 0.52916,0.238125 0.52916,0.529167 0,0.291042 -0.23812,0.529167 -0.52916,0.529167 -0.29105,0 -0.52917,-0.238125 -0.52917,-0.529167 z"
       id="path4565"
       inkscape:connector-curvature="0" />
  </g>
</svg>
